<svg width="24" height="24" viewBox="0 0 24 24" fill="none" xmlns="http://www.w3.org/2000/svg">
<path fill-rule="evenodd" clip-rule="evenodd" d="M12 0C5.37109 0 0 5.50677 0 12.3031C0 17.7378 3.4375 22.3515 8.20703 23.9775C8.80859 24.0896 9.02734 23.7132 9.02734 23.3848C9.02734 23.0924 9.01562 22.3194 9.01172 21.2942C5.67187 22.0351 4.96875 19.6442 4.96875 19.6442C4.42188 18.2224 3.63672 17.8419 3.63672 17.8419C2.54688 17.081 3.71875 17.097 3.71875 17.097C4.92188 17.1851 5.55469 18.3626 5.55469 18.3626C6.625 20.2449 8.36328 19.7002 9.04688 19.3878C9.15625 18.5909 9.46875 18.0502 9.80859 17.7418C7.14453 17.4334 4.34375 16.3761 4.34375 11.6623C4.34375 10.3167 4.8125 9.21934 5.57812 8.35828C5.45703 8.0499 5.04297 6.79636 5.69531 5.10228C5.69531 5.10228 6.70312 4.77387 8.99609 6.36383C9.95312 6.09149 10.9805 5.95532 12 5.95132C13.0195 5.95532 14.0469 6.09149 15.0039 6.36383C17.2969 4.77387 18.3008 5.10228 18.3008 5.10228C18.957 6.79636 18.5469 8.0499 18.4219 8.35828C19.1914 9.21934 19.6523 10.3167 19.6523 11.6623C19.6523 16.3882 16.8477 17.4254 14.1758 17.7338C14.6055 18.1103 14.9883 18.8632 14.9883 20.0086C14.9883 21.6546 14.9766 22.9803 14.9766 23.3848C14.9766 23.7132 15.1914 24.0976 15.8008 23.9775C20.5664 22.3475 24 17.7378 24 12.3031C24 5.50677 18.6289 0 12 0Z" fill="#243251"/>
</svg>
